<svg width="550" height="330" version="1.1" xmlns="http://www.w3.org/2000/svg" desc="Created with imagetracer.js version 1.2.6" ><path fill="rgb(185,185,185)" stroke="rgb(185,185,185)" stroke-width="1" opacity="1" d="M 230 118 L 259.5 118 L 269.5 122 L 276 127 L 282.5 135 Q 284.8 134.3 284 136.5 L 293 144 L 293 119.5 L 294.5 118 Q 301.4 117.1 303 121.5 L 303 154.5 L 306.5 159 L 309 160.5 L 311.5 164 L 313.5 165 L 314 119.5 L 315.5 118 Q 320.9 117.4 323 119 L 324 121.5 L 324 188.5 L 262.5 128 L 247 128.5 L 319 200.5 L 324 212 L 290.5 212 L 287.5 211 L 282.5 208 L 260.5 186 L 260 211.5 L 258.5 213 L 253.5 212 L 251 209.5 L 251 176.5 L 240.5 166 L 239 166.5 L 239 211.5 L 235.5 212 L 233.5 212 L 230 210.5 L 230.5 142 L 291.5 203 L 306.5 203 L 234 129.5 Q 230 125.3 230 118 Z " /><path fill="rgb(0,0,0)" stroke="rgb(0,0,0)" stroke-width="1" opacity="1" d="M 0 0 L 550 0 L 550 330 L 0 330 L 0 0 Z M 230 118 Q 230 125 234 130 L 307 203 L 292 203 L 231 142 L 230 211 L 234 212 L 236 212 L 239 212 L 239 167 L 241 166 L 251 177 L 251 210 L 254 212 L 259 213 L 260 212 L 261 186 L 283 208 L 288 211 L 291 212 L 324 212 L 319 201 L 247 129 L 263 128 L 324 189 L 324 122 L 323 119 Q 321 117 316 118 L 314 120 L 314 165 L 312 164 L 309 161 L 307 159 L 303 155 L 303 122 Q 301 117 295 118 L 293 120 L 293 144 L 284 137 Q 285 134 283 135 L 276 127 L 270 122 L 260 118 L 230 118 Z " /></svg>